<svg width="22" height="22" viewBox="0 0 22 22" fill="none" xmlns="http://www.w3.org/2000/svg">
<path d="M20.4331 17.2459L17.0124 13.8037L14.3812 12.7099C15.2573 11.4562 15.7267 9.96058 15.725 8.42798C15.725 4.30816 12.3941 0.95647 8.29998 0.95647C4.20582 0.95647 0.875 4.30816 0.875 8.42798C0.875 12.5478 4.20582 15.8995 8.29998 15.8995C9.83629 15.9013 11.3349 15.4208 12.587 14.525L13.6712 17.1655L17.0918 20.6079C17.3112 20.8286 17.5717 21.0037 17.8583 21.1232C18.1449 21.2427 18.4521 21.3042 18.7624 21.3042C19.0726 21.3042 19.3799 21.2427 19.6665 21.1233C19.9531 21.0038 20.2136 20.8287 20.433 20.608C20.6524 20.3872 20.8264 20.1251 20.9451 19.8367C21.0639 19.5483 21.125 19.2391 21.125 18.927C21.125 18.6148 21.0639 18.3056 20.9452 18.0172C20.8265 17.7287 20.6525 17.4667 20.4331 17.2459ZM2.225 8.42798C2.225 5.05731 4.9503 2.31493 8.29998 2.31493C11.6497 2.31493 14.375 5.05731 14.375 8.42798C14.375 11.7987 11.6497 14.541 8.29998 14.541C4.9503 14.541 2.225 11.7987 2.225 8.42798ZM19.4784 19.6473C19.2884 19.8381 19.0309 19.9452 18.7625 19.9452C18.494 19.9452 18.2365 19.8381 18.0465 19.6473L14.8161 16.3967L13.8081 13.9415L16.2481 14.9558L19.4785 18.2064C19.6681 18.3977 19.7745 18.6568 19.7745 18.9269C19.7745 19.197 19.668 19.4561 19.4784 19.6473Z"/>
</svg>
